<svg width="54" height="54" viewBox="0 0 54 54" fill="none" xmlns="http://www.w3.org/2000/svg">
<g id="logo">
<circle id="Ellipse 3" cx="26.6571" cy="27.3427" r="26.6571" fill="#50535A"/>
<g id="Vector 2" filter="url(#filter0_f_308_98)">
<path d="M5.31429 40.9596L18.3079 28.4659C18.8957 27.8915 20.3312 26.7427 21.3707 26.7427H32.5081C33.065 26.7427 34.0859 27.0873 35.7565 28.4659L49.0286 40.9596L47.0795 43.1998L35.7565 32.2571C34.8903 31.4242 33.0005 29.9412 32.5081 29.7584C32.3534 29.7009 31.8213 29.5861 30.9303 29.5861H22.206C21.3707 29.5861 20.3498 30.0169 18.4935 31.7401L6.33521 43.1998L5.31429 40.9596Z" fill="#628094" fill-opacity="0.8"/>
</g>
<g id="Vector 3" filter="url(#filter1_f_308_98)">
<path d="M5.65714 43.2002L18.6241 30.93C19.1686 30.3915 20.4986 29.3145 21.4616 29.3145H31.7799C32.2959 29.3145 33.2417 29.6376 34.7894 30.93L47.8286 43.2002L45.6921 45.0859L34.7894 34.4842C33.9869 33.7034 32.2361 32.3131 31.7799 32.1417C31.6366 32.0878 31.1436 31.9801 30.3182 31.9801H22.2355C21.4616 31.9801 20.5158 32.384 18.796 33.9996L7.53187 44.743L5.65714 43.2002Z" fill="#5D707D" fill-opacity="0.8"/>
</g>
<g id="Vector 4" filter="url(#filter2_f_308_98)">
<path d="M8.05714 44.0061L19.3692 33.2043C19.881 32.7076 21.1307 31.7144 22.0357 31.7144H31.7318C32.2166 31.7144 33.1054 32.0123 34.5598 33.2043L46.1143 44.0061L44.4175 45.9429L34.5598 36.482C33.8056 35.7619 32.1604 34.4798 31.7318 34.3217C31.5971 34.272 31.1338 34.1727 30.3581 34.1727H22.7629C22.0357 34.1727 21.1469 34.5452 19.5308 36.0351L8.94595 45.9429L8.05714 44.0061Z" fill="#556069" fill-opacity="0.8"/>
</g>
<g id="Vector 1">
<path d="M5.57542 41.1427L18.196 29.092C18.933 28.5756 19.67 27.3705 21.4203 27.1984H31.83C32.8126 27.2558 33.0275 27.0262 34.3172 28.1452L48.596 41.1427L49.8857 39.3351L36.3439 26.4237C35.2384 25.3908 35.4227 25.3908 35.2384 25.0465V21.5174C35.177 21.2591 34.9252 20.7427 34.4094 20.7427H19.0251C18.718 20.7714 18.1039 20.9837 18.1039 21.6034V25.3047C18.1039 25.7351 17.6433 26.3376 17.2748 26.768C16.9152 27.188 8.43118 35.2895 4.28572 39.3351L5.57542 41.1427Z" fill="#F7F7F9"/>
<path d="M5.57542 41.1427L18.196 29.092C18.933 28.5756 19.67 27.3705 21.4203 27.1984H31.83C32.8126 27.2558 33.0275 27.0262 34.3172 28.1452L48.596 41.1427L49.8857 39.3351L36.3439 26.4237C35.2384 25.3908 35.4227 25.3908 35.2384 25.0465V21.5174C35.177 21.2591 34.9252 20.7427 34.4094 20.7427H19.0251C18.718 20.7714 18.1039 20.9837 18.1039 21.6034V25.3047C18.1039 25.7351 17.6433 26.3376 17.2748 26.768C16.9152 27.188 8.43118 35.2895 4.28572 39.3351L5.57542 41.1427Z" fill="url(#paint0_linear_308_98)" fill-opacity="0.8"/>
<path d="M5.57542 41.1427L18.196 29.092C18.933 28.5756 19.67 27.3705 21.4203 27.1984H31.83C32.8126 27.2558 33.0275 27.0262 34.3172 28.1452L48.596 41.1427L49.8857 39.3351L36.3439 26.4237C35.2384 25.3908 35.4227 25.3908 35.2384 25.0465V21.5174C35.177 21.2591 34.9252 20.7427 34.4094 20.7427H19.0251C18.718 20.7714 18.1039 20.9837 18.1039 21.6034V25.3047C18.1039 25.7351 17.6433 26.3376 17.2748 26.768C16.9152 27.188 8.43118 35.2895 4.28572 39.3351L5.57542 41.1427Z" fill="url(#paint1_linear_308_98)" fill-opacity="0.8"/>
</g>
<circle id="Ellipse 2" cx="26.7429" cy="27.4285" r="23.2" stroke="url(#paint2_linear_308_98)" stroke-width="4"/>
<circle id="Ellipse 4" cx="27" cy="27" r="25" stroke="url(#paint3_linear_308_98)" stroke-width="4"/>
</g>
<defs>
<filter id="filter0_f_308_98" x="3.31429" y="24.7427" width="47.7143" height="20.457" filterUnits="userSpaceOnUse" color-interpolation-filters="sRGB">
<feFlood flood-opacity="0" result="BackgroundImageFix"/>
<feBlend mode="normal" in="SourceGraphic" in2="BackgroundImageFix" result="shape"/>
<feGaussianBlur stdDeviation="1" result="effect1_foregroundBlur_308_98"/>
</filter>
<filter id="filter1_f_308_98" x="3.65714" y="27.3145" width="46.1714" height="19.7715" filterUnits="userSpaceOnUse" color-interpolation-filters="sRGB">
<feFlood flood-opacity="0" result="BackgroundImageFix"/>
<feBlend mode="normal" in="SourceGraphic" in2="BackgroundImageFix" result="shape"/>
<feGaussianBlur stdDeviation="1" result="effect1_foregroundBlur_308_98"/>
</filter>
<filter id="filter2_f_308_98" x="6.05714" y="29.7144" width="42.0571" height="18.2285" filterUnits="userSpaceOnUse" color-interpolation-filters="sRGB">
<feFlood flood-opacity="0" result="BackgroundImageFix"/>
<feBlend mode="normal" in="SourceGraphic" in2="BackgroundImageFix" result="shape"/>
<feGaussianBlur stdDeviation="1" result="effect1_foregroundBlur_308_98"/>
</filter>
<linearGradient id="paint0_linear_308_98" x1="46.5694" y1="37.6136" x2="31.3333" y2="21.8602" gradientUnits="userSpaceOnUse">
<stop stop-color="#8AC2D9"/>
<stop offset="1" stop-color="white" stop-opacity="0"/>
</linearGradient>
<linearGradient id="paint1_linear_308_98" x1="6.68087" y1="38.0439" x2="22.4594" y2="20.7901" gradientUnits="userSpaceOnUse">
<stop stop-color="#8AC2D9"/>
<stop offset="1" stop-color="white" stop-opacity="0"/>
</linearGradient>
<linearGradient id="paint2_linear_308_98" x1="26.7429" y1="2.22852" x2="26.7429" y2="52.6285" gradientUnits="userSpaceOnUse">
<stop stop-color="#AEDAE0"/>
<stop offset="1" stop-color="#88BACF"/>
</linearGradient>
<linearGradient id="paint3_linear_308_98" x1="27" y1="0" x2="27" y2="54" gradientUnits="userSpaceOnUse">
<stop stop-color="#E1E5E9"/>
<stop offset="1" stop-color="#5E788A"/>
</linearGradient>
</defs>
</svg>
